<svg xmlns="http://www.w3.org/2000/svg" width="340.833" height="331.742" viewBox="0 0 340.833 331.742">
  <g id="Group_2146" data-name="Group 2146" transform="translate(-370 -135.199)">
    <g id="Group_1479" data-name="Group 1479" transform="translate(156.065 129.245)">
      <path id="Path_2651" data-name="Path 2651" d="M283.8,208.787a5.711,5.711,0,0,1-4.26-1.885,103.52,103.52,0,0,1-27.355-69.832,101.947,101.947,0,0,1,12.828-49.632,5.551,5.551,0,0,1,4.944-2.887,5.723,5.723,0,0,1,4.994,8.525A91.873,91.873,0,0,0,288.022,199.1a5.75,5.75,0,0,1,.11,7.691,5.682,5.682,0,0,1-4.331,2Z" transform="translate(27.594 56.702)"/>
      <path id="Path_2652" data-name="Path 2652" d="M542.509,337.7A5.782,5.782,0,0,1,538.4,336L218.273,15.869a5.809,5.809,0,0,1,8.216-8.215l51.617,51.619,3.575-2.637a168.721,168.721,0,0,1,100.764-33.28c93.968,0,170.417,76.449,170.417,170.417A168.993,168.993,0,0,1,519.5,294.459l-2.627,3.574,29.746,29.748a5.808,5.808,0,0,1-4.107,9.915Z" transform="translate(1.905)"/>
      <path id="Path_2653" data-name="Path 2653" d="M267.313,278.721a5.685,5.685,0,0,1-4.075-1.7A170.258,170.258,0,0,1,244.916,59.272a5.843,5.843,0,0,1,9.587,6.683,157.984,157.984,0,0,0,17.073,202.611,5.84,5.84,0,0,1,.317,7.974l-.133.153A5.876,5.876,0,0,1,267.313,278.721Z" transform="translate(0 36.671)"/>
      <path id="Path_2654" data-name="Path 2654" d="M300.471,139.431a5.744,5.744,0,0,1-5.042-2.935,38.008,38.008,0,0,1-5-18.8,36.823,36.823,0,0,1,.542-6.282l12.277,12.279a29.223,29.223,0,0,0,2.494,6.882,5.8,5.8,0,0,1-.685,6.553l-.337.38a5.613,5.613,0,0,1-4.252,1.925Z" transform="translate(55.187 76.08)"/>
      <path id="Path_2655" data-name="Path 2655" d="M353.093,77.036A104.691,104.691,0,0,1,457.667,181.61a101.06,101.06,0,0,1-15.41,53.4l-2.126,3.47,38.743,38.744,3.538-5c19.285-27.274,29.479-58.61,29.479-90.618,0-87.562-71.236-158.8-158.8-158.8-32.189,0-63.59,10.12-90.809,29.271l-5.021,3.534,38.971,38.973,3.469-2.11C316.534,82.233,334.5,77.036,353.093,77.036Z" transform="translate(31.258 12.163)" fill="#b9b9b9"/>
      <path id="Path_2656" data-name="Path 2656" d="M333.431,115.285a38.773,38.773,0,0,1,38.73,38.731,25.774,25.774,0,0,1-.394,3.734c-.069.444-.136.892-.2,1.339l-.356,2.546,41.02,41.02,3.283-6.137a89.3,89.3,0,0,0,10.869-42.5,93.059,93.059,0,0,0-92.954-92.954,91.238,91.238,0,0,0-42.688,10.621l-6.225,3.259,41.3,41.3,2.548-.356c.456-.064.911-.133,1.363-.2A25.155,25.155,0,0,1,333.431,115.285Z" transform="translate(50.921 39.757)" fill="#b9b9b9"/>
    </g>
  </g>
</svg>
