

<svg xmlns="http://www.w3.org/2000/svg" width="332" height="332" viewBox="0 0 332 332">
  <g id="Group_2157" data-name="Group 2157" transform="translate(-3.003 -3.002)">
    <circle id="Ellipse_128" data-name="Ellipse 128" cx="4.5" cy="4.5" r="4.5" transform="translate(99.003 245.397)"/>
    <path id="Path_2727" data-name="Path 2727" d="M169.01,335a4.629,4.629,0,0,1-1.535-.264c-.659-.241-45.007-16.872-77.389-29.016L62.408,295.344a4.616,4.616,0,0,1-2.98-4.3V188.71L21.783,176.163a4.592,4.592,0,0,1-2.487-6.72l25.819-43.032L4.345,85.642a4.594,4.594,0,0,1,1.88-7.633L116.175,43.725l.349-.865a63.654,63.654,0,0,1,119.788,4.789l.308.99,95.145,29.367a4.593,4.593,0,0,1,1.894,7.636L293.6,125.7l40.058,40.057a4.593,4.593,0,0,1-1.871,7.63l-40.089,12.6V291.044a4.589,4.589,0,0,1-3.141,4.358L170.376,334.793A4.523,4.523,0,0,1,169.01,335Z" transform="translate(0)"/>
    <path id="Path_2728" data-name="Path 2728" d="M263,415.836,371.917,379.53V280.666l-77.189,24.256a4.592,4.592,0,0,1-4.963-1.512L263,269.955Z" transform="translate(-89.404 -91.796)" fill="#b9b9b9"/>
    <path id="Path_2729" data-name="Path 2729" d="M103,381.487l95.8,35.923V275.274l-19.131,31.888a4.619,4.619,0,0,1-3.94,2.23l-.308,0c-.567,0-2.9-.785-14.138-4.557-9.966-3.347-26.646-8.947-55.691-18.577L103,285.4Z" transform="translate(-34.385 -93.625)" fill="#b9b9b9"/>
    <path id="Path_2730" data-name="Path 2730" d="M44.331,236.456l109.177,36.392,22.821-38.038L67.152,198.418Z" transform="translate(-14.211 -67.197)" fill="#8a8a8f"/>
    <path id="Path_2731" data-name="Path 2731" d="M267.736,234.4l28.867,36.08L412.838,233.95,376.9,198.01Z" transform="translate(-91.033 -67.057)" fill="#8a8a8f"/>
    <path id="Path_2732" data-name="Path 2732" d="M98.136,179.538l103.579,34.526,103.579-34.526-49.637-16.544-.863.924a63.627,63.627,0,0,1-95.9-3.292l-.858-1.056Z" transform="translate(-32.713 -53.839)" fill="#fff"/>
    <path id="Path_2733" data-name="Path 2733" d="M237.458,17a54.459,54.459,0,1,0,42.322,88.737,53.8,53.8,0,0,0,12.137-34.278A54.39,54.39,0,0,0,237.458,17Z" transform="translate(-61.895 -4.814)" fill="#b9b9b9"/>
    <path id="Path_2734" data-name="Path 2734" d="M357.4,91.115c.125,1.671.19,3.3.19,4.84a63.727,63.727,0,0,1-9.057,32.7l-1.258,2.1,56.973,18.988,35.909-35.908-82.973-25.61Z" transform="translate(-118.385 -29.309)" fill="#8a8a8f"/>
    <path id="Path_2735" data-name="Path 2735" d="M23.134,111.414l35.927,35.926,67.888-22.627-1.056-2.044a62.849,62.849,0,0,1-7.053-29.126,64.469,64.469,0,0,1,.678-9.231l.449-3.092Z" transform="translate(-6.923 -26.896)" fill="#8a8a8f"/>
    <path id="Path_2736" data-name="Path 2736" d="M205.943,400.881a4.578,4.578,0,0,1-1.613-.295l-14.592-5.471a4.594,4.594,0,0,1-2.688-5.914,4.617,4.617,0,0,1,4.3-2.981,4.57,4.57,0,0,1,1.611.294l14.592,5.471a4.594,4.594,0,0,1,2.688,5.914,4.616,4.616,0,0,1-4.3,2.981Z" transform="translate(-63.187 -131.776)" fill="#fff"/>
    <path id="Path_2737" data-name="Path 2737" d="M192.957,438.731a4.565,4.565,0,0,1-1.611-.295l-39.369-14.763a4.593,4.593,0,0,1-2.688-5.914,4.585,4.585,0,0,1,5.913-2.687l39.369,14.763a4.592,4.592,0,0,1,2.688,5.913A4.617,4.617,0,0,1,192.957,438.731Z" transform="translate(-50.202 -141.596)" fill="#fff"/>
    <path id="Path_2738" data-name="Path 2738" d="M275.1,108.555a2.029,2.029,0,0,1-1.667-.756L257.044,91.561,240.656,107.8a2.216,2.216,0,0,1-3.336,0L233.526,104a2.217,2.217,0,0,1,0-3.338l16.238-16.389L233.526,67.892a2.218,2.218,0,0,1-.009-3.333l3.8-3.8a2.216,2.216,0,0,1,3.339,0l16.386,16.235L273.43,60.76a2.217,2.217,0,0,1,3.339,0l3.8,3.8a2.217,2.217,0,0,1,0,3.335L264.328,84.278l16.234,16.386a2.216,2.216,0,0,1,0,3.338l-3.8,3.794A2.027,2.027,0,0,1,275.1,108.555Z" transform="translate(-81.48 -17.632)" fill="#fff"/>
  </g>
</svg>
